#format: frame checksums
#version: 1
#hash: MD5
#tb 0: 1/25
#stream#, dts,        pts, duration,     size, hash
0,          0,          0,        1,    89732, c8dbbbed6c59cff00c7cead39cadd7d4
0,          1,          1,        1,    89652, f1c995c2bcb13f9de97fd8c5da2637a1
0,          2,          2,        1,    90868, e126298a564eec5e60518fca891bfd43
0,          3,          3,        1,    89520, 8694da46ab5672f890d57c741d69d830
0,          4,          4,        1,    88508, 0e0ae55ba0bcdf6618b7cffae7242d71
0,          5,          5,        1,    90140, ef59eccdbf3b699a2eb857c6da044fa7
0,          6,          6,        1,    90176, 95509ddb5a5169900714eaa2aac59703
0,          7,          7,        1,    89392, 25782fbbf8552e7682cded46b418096b
0,          8,          8,        1,    89848, 46cbfe84ab2c46f045d23fd798dc64b2
0,          9,          9,        1,    90356, 41cdc2e6dec30172ecccf1aca7b7ab0e
0,         10,         10,        1,    89984, 469be246c63ba4743d9c5ea91c4b849a
0,         11,         11,        1,    90012, 100bc595e92ca6d73525b2e20eaa7d25
0,         12,         12,        1,    89072, a355e131c150b82d3620fe54ab53b423
0,         13,         13,        1,    89776, 67e7c8a187157c1827a2e529865ab941
0,         14,         14,        1,    90676, 7fa956927033cab7c0ae9a0a86d57b59
0,         15,         15,        1,    90852, d507b175068e9d6c729530b436824436
0,         16,         16,        1,    89844, ae6b71fe15285387229734fdaaad86d0
0,         17,         17,        1,    89852, 6ced7f1bc56299e5c7b5169a1e62f4e6
0,         18,         18,        1,    89144, 09a950b254eb5e7ac061e30a14ef98e8
0,         19,         19,        1,    88880, acf28ad860b52fb502d22c063689a9d8
0,         20,         20,        1,    88344, 682436aa7aeffa2cd5daa6adf037eb88
0,         21,         21,        1,    88464, bbbefa2630e4e5165c9db638ceb730b8
0,         22,         22,        1,    88588, 71d0e9178794e0ebf414bdd1c532d4fd
0,         23,         23,        1,    89720, f39171093709c90dae1ecc56e1a0d52b
0,         24,         24,        1,    90216, d8a7e85456ed58b86f42120269a62a46
0,         25,         25,        1,    89456, e6d8b4f4b7c1903d66caea47cde9188a
0,         26,         26,        1,    88992, 226f69483ab481fd48fa2121fa925fc9
0,         27,         27,        1,    88632, 2ef0ae5d9b35440a540dce11098be40b
0,         28,         28,        1,    87048, 5ed9c2db56db5ab3b5695ff282fbbd00
0,         29,         29,        1,    87120, afe541aa18fd0fbeb7d623c2e03f7313
0,         30,         30,        1,    88044, 4783145cbcbac507631d89b4c1b9f657
0,         31,         31,        1,    89016, b8d2e919eecced0e4e13bab212fe5eaa
0,         32,         32,        1,    89324, 1be1c9ee208834cb150e7dc114b3c3f5
0,         33,         33,        1,    90328, 9ecb6f9511b869becfc3ae1cac0532c4
0,         34,         34,        1,    89684, dc56a959ece1d3ea923be523ae4b5f03
0,         35,         35,        1,    89216, bb1b89d23284a73faaae092e02c35318
0,         36,         36,        1,    88644, 5a01fba266207f286dd000502144374c
0,         37,         37,        1,    89000, e30493ff019668eaccae12c420a250ea
0,         38,         38,        1,    88628, 0217f6f365739f8c7f1738d369afb2e5
0,         39,         39,        1,    88448, 9d064836b1b232620da1d470fa314d56
0,         40,         40,        1,    87332, 9179648b65b4757cd23d732ef96e8685
0,         41,         41,        1,    88856, 96e0779b5fb5708a73519cc5f8a685b3
0,         42,         42,        1,    88556, 5586e5b8149eefe271d7d2c4688a57e0
0,         43,         43,        1,    88380, c8a1962e2c4fc33b303e3e09c87ee1fb
0,         44,         44,        1,    87888, 70f38ebefceec78ec00fc2d190efc633
0,         45,         45,        1,    86876, f8e0beb98988c19930c2cdd90ecfe867
0,         46,         46,        1,    86272, fcb7343e281b2d42c81f9b5c4c1e786e
0,         47,         47,        1,    86388, cfa6fce827ac3604ea2124d7332e2226
0,         48,         48,        1,    86188, 5455b984533d774b8e7f04eea4e4eeaa
0,         49,         49,        1,    85244, 9e4691d5a8be8270d48ef15292aaf0f7
